<svg width="969" height="968" viewBox="0 0 969 968" fill="none" xmlns="http://www.w3.org/2000/svg">
<path d="M767.644 627.014C534.534 573.027 385.142 635.047 157.033 620.675C157.033 620.675 170.364 646.818 183.999 663.173C355.581 663.173 579.055 592.522 767.644 627.014Z" fill="#2B4469"/>
<path d="M714.619 698.497C579.055 653.008 339.45 707.995 209.388 692.499L253.909 733.489C392.475 726.491 533.033 670.004 714.619 698.497Z" fill="#2B4469"/>
<path d="M627.078 767.981C519.026 738.988 382.967 763.982 303.429 767.981L352.952 786.477C409.479 773.98 528.031 750.985 627.078 767.981Z" fill="#2B4469"/>
<path fill-rule="evenodd" clip-rule="evenodd" d="M190.485 622.275C179.516 621.915 168.373 621.389 157.035 620.675L156.854 620.285L156.812 620.293C210.318 749.283 337.514 840.005 485.913 840.005C682.608 840.005 842.091 680.624 842.114 484.002C842.117 458.72 839.483 434.053 834.472 410.261C825.212 414.825 815.864 419.433 806.607 423.996C810.226 443.446 812.116 463.504 812.114 484.002C812.093 664.042 666.056 810.005 485.916 810.005C355.236 810.005 242.52 733.19 190.485 622.275Z" fill="#2B4469"/>
<path d="M159.795 484.002C159.816 303.963 305.853 158 485.992 158C615.911 158 728.074 233.922 780.508 343.794C780.517 343.813 780.526 343.832 780.535 343.85L783.592 350.45L810.917 338.044C810.917 338.044 804.789 325.098 806.28 328.154C748.474 209.645 626.775 128 485.996 128C289.301 128 129.818 287.381 129.795 484.002C129.792 506.432 131.865 528.377 135.831 549.656L165.258 543.776C161.668 524.398 159.792 504.419 159.795 484.002Z" fill="#2B4469"/>
<path d="M928.374 301.824C929.811 291.355 927.334 289.712 928.561 288.994C929.352 288.557 930.587 288.309 931.313 288.399C933.488 288.67 938.986 296.654 940.95 302.389C945.145 314.644 943.843 324.313 936.488 329.625L701.618 445.929C631.763 481.231 636.219 478.772 640.305 479.281C646.369 480.036 673.652 489.928 686.037 495.822C707.824 506.302 715.408 515.283 708.713 522.82C701.764 530.795 677.875 537.732 651.488 539.47C628.873 541.008 623.164 540.632 552.935 532.693C517.688 528.708 496.996 527.727 487.678 527.304L71.0611 609.355C55.7627 612.542 55.375 608.449 44.3499 594.929C37.9893 587.129 35.5107 582.819 31.1747 576.488C28.5731 572.69 25.3444 563.214 29.1435 567C30.8387 568.214 36.1649 571.892 44.0367 580.707C51.6199 589.151 56.0377 593.451 61.1062 597.364L63.8588 599.447L68.9497 598.34L401.03 527.044C406.731 525.879 413.828 524.19 413.828 524.19C413.828 524.19 410.561 524.145 408.287 524.13C405.939 524.173 388.753 524.043 369.953 523.979C351.227 523.858 327.285 523.69 316.781 523.655C306.277 523.62 292.486 523.109 286.059 522.577L274.344 521.52L273.89 519.254C273.568 517.539 266.413 472.316 260.902 437.008L260.34 433.456L241.302 437.448L240.161 437.685C222.334 441.384 222.169 441.419 217.577 440.388C214.973 439.796 212.847 439.129 212.88 438.866C212.913 438.602 215.516 437.587 218.704 436.711C221.834 435.761 232.46 432.664 242.321 429.807C266.843 422.613 290.312 415.824 322.751 406.335L350.256 398.307L355.99 399.021C359.088 399.407 361.626 399.991 361.593 400.254C361.56 400.518 348.743 405.619 333.15 411.514C317.557 417.408 304.271 422.518 303.694 422.848C302.821 423.409 304.892 428.823 317.419 458.843C325.51 478.266 333.485 497.005 335.052 500.549C338.252 507.644 340.733 510.296 344.49 510.764C345.808 510.928 361.527 509.403 379.444 507.414C450.185 499.411 488.063 493.545 522.291 485.283C559.838 476.162 578.661 472.813 591.382 472.789L913.51 328.171C920.627 324.771 926.034 319.546 928.374 301.824Z" fill="#2B4469"/>
<path d="M634.972 345.71C628.619 351.117 620.384 354.38 611.386 354.38C591.283 354.38 574.987 338.092 574.987 318C574.987 297.908 591.283 281.62 611.386 281.62C622.49 281.62 632.433 286.59 639.11 294.426L657.977 275.568C646.449 262.93 629.844 255 611.386 255C576.574 255 548.354 283.206 548.354 318C548.354 352.794 576.574 381 611.386 381C627.739 381 642.638 374.776 653.84 364.568L634.972 345.71Z" fill="#2B4469"/>
<path d="M377.013 354.38C386.011 354.38 394.246 351.117 400.599 345.71C420.501 325.818 423.979 299.368 447.781 275.378C459.302 262.851 475.833 255 494.199 255C512.658 255 529.263 262.93 540.791 275.568L521.923 294.426C515.247 286.59 505.304 281.62 494.199 281.62C474.097 281.62 457.8 297.908 457.8 318C457.8 338.092 474.097 354.38 494.199 354.38C499.868 354.38 505.233 353.085 510.016 350.775V318H536.65V364.564L536.653 364.568C525.451 374.776 510.553 381 494.199 381C468.268 381 445.994 365.349 436.317 342.982C432.09 349.995 426.97 357.068 419.467 364.568C408.265 374.776 393.366 381 377.013 381C342.201 381 313.98 352.794 313.98 318C313.98 283.206 342.201 255 377.013 255C395.471 255 412.076 262.93 423.604 275.568L404.736 294.426C398.06 286.59 388.117 281.62 377.013 281.62C356.91 281.62 340.614 297.908 340.614 318C340.614 338.092 356.91 354.38 377.013 354.38Z" fill="#2B4469"/>
</svg>
