<svg width="2195" height="712" viewBox="0 0 2195 712" fill="none" xmlns="http://www.w3.org/2000/svg">
<path d="M1070.8 204.8C1056.14 204.8 1042.94 201.733 1031.2 195.6C1019.6 189.333 1010.47 180.667 1003.8 169.6C997.137 158.533 993.804 146 993.804 132C993.804 118 997.137 105.467 1003.8 94.4C1010.47 83.3333 1019.6 74.7333 1031.2 68.6C1042.94 62.3333 1056.14 59.2 1070.8 59.2C1083.6 59.2 1095.14 61.4667 1105.4 66C1115.67 70.5333 1124.2 77.0667 1131 85.6L1105.8 108.4C1096.74 97.4667 1085.74 92 1072.8 92C1065.2 92 1058.4 93.6667 1052.4 97C1046.54 100.333 1041.94 105.067 1038.6 111.2C1035.4 117.2 1033.8 124.133 1033.8 132C1033.8 139.867 1035.4 146.867 1038.6 153C1041.94 159 1046.54 163.667 1052.4 167C1058.4 170.333 1065.2 172 1072.8 172C1085.74 172 1096.74 166.533 1105.8 155.6L1131 178.4C1124.2 186.933 1115.67 193.467 1105.4 198C1095.14 202.533 1083.6 204.8 1070.8 204.8ZM1240.12 174.8H1180.92L1169.92 202H1129.52L1191.32 62H1230.32L1292.32 202H1251.12L1240.12 174.8ZM1228.52 145.6L1210.52 100.8L1192.52 145.6H1228.52ZM1436.74 62V202H1404.14L1342.34 127.4V202H1303.54V62H1336.14L1397.94 136.6V62H1436.74ZM1572.28 129C1580.28 131.8 1586.54 136.2 1591.08 142.2C1595.61 148.067 1597.88 155.2 1597.88 163.6C1597.88 175.867 1592.94 185.333 1583.08 192C1573.21 198.667 1558.94 202 1540.28 202H1464.68V62H1536.28C1554.14 62 1567.74 65.3333 1577.08 72C1586.41 78.5333 1591.08 87.4 1591.08 98.6C1591.08 105.267 1589.41 111.267 1586.08 116.6C1582.88 121.8 1578.28 125.933 1572.28 129ZM1503.88 90.6V117.6H1531.08C1544.41 117.6 1551.08 113.067 1551.08 104C1551.08 95.0667 1544.41 90.6 1531.08 90.6H1503.88ZM1537.08 173.4C1550.94 173.4 1557.88 168.667 1557.88 159.2C1557.88 149.733 1550.94 145 1537.08 145H1503.88V173.4H1537.08ZM1730.79 171.4V202H1618.39V62H1728.19V92.6H1657.59V116.2H1719.79V145.8H1657.59V171.4H1730.79ZM1813.96 164.8H1792.36V202H1752.76V62H1816.76C1829.43 62 1840.43 64.1333 1849.76 68.4C1859.1 72.5333 1866.3 78.5333 1871.36 86.4C1876.43 94.1333 1878.96 103.267 1878.96 113.8C1878.96 123.933 1876.56 132.8 1871.76 140.4C1867.1 147.867 1860.36 153.733 1851.56 158L1881.76 202H1839.36L1813.96 164.8ZM1838.96 113.8C1838.96 107.267 1836.9 102.2 1832.76 98.6C1828.63 95 1822.5 93.2 1814.36 93.2H1792.36V134.2H1814.36C1822.5 134.2 1828.63 132.467 1832.76 129C1836.9 125.4 1838.96 120.333 1838.96 113.8ZM1962.01 164.8H1940.41V202H1900.81V62H1964.81C1977.48 62 1988.48 64.1333 1997.81 68.4C2007.14 72.5333 2014.34 78.5333 2019.41 86.4C2024.48 94.1333 2027.01 103.267 2027.01 113.8C2027.01 123.933 2024.61 132.8 2019.81 140.4C2015.14 147.867 2008.41 153.733 1999.61 158L2029.81 202H1987.41L1962.01 164.8ZM1987.01 113.8C1987.01 107.267 1984.94 102.2 1980.81 98.6C1976.68 95 1970.54 93.2 1962.41 93.2H1940.41V134.2H1962.41C1970.54 134.2 1976.68 132.467 1980.81 129C1984.94 125.4 1987.01 120.333 1987.01 113.8ZM2142.66 174.8H2083.46L2072.46 202H2032.06L2093.86 62H2132.86L2194.86 202H2153.66L2142.66 174.8ZM2131.06 145.6L2113.06 100.8L2095.06 145.6H2131.06ZM1094.8 355H1129.8V413C1121.8 418.733 1112.6 423.133 1102.2 426.2C1091.8 429.267 1081.4 430.8 1071 430.8C1056.34 430.8 1043.14 427.733 1031.4 421.6C1019.67 415.333 1010.47 406.667 1003.8 395.6C997.137 384.533 993.804 372 993.804 358C993.804 344 997.137 331.467 1003.8 320.4C1010.47 309.333 1019.74 300.733 1031.6 294.6C1043.47 288.333 1056.87 285.2 1071.8 285.2C1084.87 285.2 1096.6 287.4 1107 291.8C1117.4 296.2 1126.07 302.533 1133 310.8L1107.8 333.6C1098.34 323.2 1087 318 1073.8 318C1061.8 318 1052.14 321.667 1044.8 329C1037.47 336.2 1033.8 345.867 1033.8 358C1033.8 365.733 1035.47 372.667 1038.8 378.8C1042.14 384.8 1046.8 389.533 1052.8 393C1058.8 396.333 1065.67 398 1073.4 398C1081 398 1088.14 396.467 1094.8 393.4V355ZM1154.91 288H1194.51V396.6H1261.31V428H1154.91V288ZM1276.98 288H1316.58V428H1276.98V288ZM1344.75 288H1410.95C1426.29 288 1439.89 290.867 1451.75 296.6C1463.62 302.333 1472.82 310.467 1479.35 321C1485.89 331.533 1489.15 343.867 1489.15 358C1489.15 372.133 1485.89 384.467 1479.35 395C1472.82 405.533 1463.62 413.667 1451.75 419.4C1439.89 425.133 1426.29 428 1410.95 428H1344.75V288ZM1409.35 396.4C1421.35 396.4 1430.95 393 1438.15 386.2C1445.49 379.4 1449.15 370 1449.15 358C1449.15 346 1445.49 336.6 1438.15 329.8C1430.95 323 1421.35 319.6 1409.35 319.6H1384.35V396.4H1409.35ZM1509.99 288H1549.59V428H1509.99V288ZM1710.96 288V428H1678.36L1616.56 353.4V428H1577.76V288H1610.36L1672.16 362.6V288H1710.96ZM1832.69 355H1867.69V413C1859.69 418.733 1850.49 423.133 1840.09 426.2C1829.69 429.267 1819.29 430.8 1808.89 430.8C1794.23 430.8 1781.03 427.733 1769.29 421.6C1757.56 415.333 1748.36 406.667 1741.69 395.6C1735.03 384.533 1731.69 372 1731.69 358C1731.69 344 1735.03 331.467 1741.69 320.4C1748.36 309.333 1757.63 300.733 1769.49 294.6C1781.36 288.333 1794.76 285.2 1809.69 285.2C1822.76 285.2 1834.49 287.4 1844.89 291.8C1855.29 296.2 1863.96 302.533 1870.89 310.8L1845.69 333.6C1836.23 323.2 1824.89 318 1811.69 318C1799.69 318 1790.03 321.667 1782.69 329C1775.36 336.2 1771.69 345.867 1771.69 358C1771.69 365.733 1773.36 372.667 1776.69 378.8C1780.03 384.8 1784.69 389.533 1790.69 393C1796.69 396.333 1803.56 398 1811.29 398C1818.89 398 1826.03 396.467 1832.69 393.4V355ZM1070.8 656.8C1056.14 656.8 1042.94 653.733 1031.2 647.6C1019.6 641.333 1010.47 632.667 1003.8 621.6C997.137 610.533 993.804 598 993.804 584C993.804 570 997.137 557.467 1003.8 546.4C1010.47 535.333 1019.6 526.733 1031.2 520.6C1042.94 514.333 1056.14 511.2 1070.8 511.2C1083.6 511.2 1095.14 513.467 1105.4 518C1115.67 522.533 1124.2 529.067 1131 537.6L1105.8 560.4C1096.74 549.467 1085.74 544 1072.8 544C1065.2 544 1058.4 545.667 1052.4 549C1046.54 552.333 1041.94 557.067 1038.6 563.2C1035.4 569.2 1033.8 576.133 1033.8 584C1033.8 591.867 1035.4 598.867 1038.6 605C1041.94 611 1046.54 615.667 1052.4 619C1058.4 622.333 1065.2 624 1072.8 624C1085.74 624 1096.74 618.533 1105.8 607.6L1131 630.4C1124.2 638.933 1115.67 645.467 1105.4 650C1095.14 654.533 1083.6 656.8 1070.8 656.8ZM1148.66 514H1188.26V622.6H1255.06V654H1148.66V514ZM1333.96 656.8C1313.16 656.8 1296.96 651.133 1285.36 639.8C1273.9 628.467 1268.16 612.4 1268.16 591.6V514H1307.76V590.4C1307.76 612.8 1316.63 624 1334.36 624C1351.96 624 1360.76 612.8 1360.76 590.4V514H1399.76V591.6C1399.76 612.4 1393.96 628.467 1382.36 639.8C1370.9 651.133 1354.76 656.8 1333.96 656.8ZM1534.19 581C1542.19 583.8 1548.46 588.2 1552.99 594.2C1557.52 600.067 1559.79 607.2 1559.79 615.6C1559.79 627.867 1554.86 637.333 1544.99 644C1535.12 650.667 1520.86 654 1502.19 654H1426.59V514H1498.19C1516.06 514 1529.66 517.333 1538.99 524C1548.32 530.533 1552.99 539.4 1552.99 550.6C1552.99 557.267 1551.32 563.267 1547.99 568.6C1544.79 573.8 1540.19 577.933 1534.19 581ZM1465.79 542.6V569.6H1492.99C1506.32 569.6 1512.99 565.067 1512.99 556C1512.99 547.067 1506.32 542.6 1492.99 542.6H1465.79ZM1498.99 625.4C1512.86 625.4 1519.79 620.667 1519.79 611.2C1519.79 601.733 1512.86 597 1498.99 597H1465.79V625.4H1498.99Z" fill="#2B4469"/>
<mask id="path-2-outside-1_145_2" maskUnits="userSpaceOnUse" x="152.629" y="472.618" width="610" height="190" fill="black">
<rect fill="white" x="152.629" y="472.618" width="610" height="190"/>
<path d="M758.208 498.242C525.098 444.255 384.094 509.958 156.629 497.144C156.629 497.144 168.928 523.046 182.563 539.401C354.144 539.401 569.619 463.75 758.208 498.242Z"/>
<path d="M705.183 569.726C569.619 524.236 334.489 577.756 204.427 562.26L245.926 606.332C384.492 599.334 523.597 541.232 705.183 569.726Z"/>
<path d="M617.642 639.21C509.59 610.216 373.53 635.211 293.993 639.21L343.516 657.706C400.043 645.208 518.595 622.214 617.642 639.21Z"/>
</mask>
<path d="M758.208 498.242C525.098 444.255 384.094 509.958 156.629 497.144C156.629 497.144 168.928 523.046 182.563 539.401C354.144 539.401 569.619 463.75 758.208 498.242Z" fill="#2B4469"/>
<path d="M705.183 569.726C569.619 524.236 334.489 577.756 204.427 562.26L245.926 606.332C384.492 599.334 523.597 541.232 705.183 569.726Z" fill="#2B4469"/>
<path d="M617.642 639.21C509.59 610.216 373.53 635.211 293.993 639.21L343.516 657.706C400.043 645.208 518.595 622.214 617.642 639.21Z" fill="#2B4469"/>
<path d="M156.629 497.144L156.854 493.15C155.444 493.071 154.097 493.74 153.309 494.912C152.522 496.084 152.41 497.584 153.016 498.86L156.629 497.144ZM758.208 498.242L757.489 502.177C759.626 502.568 761.684 501.181 762.125 499.053C762.566 496.926 761.227 494.836 759.111 494.345L758.208 498.242ZM182.563 539.401L179.491 541.962C180.251 542.874 181.376 543.401 182.563 543.401V539.401ZM204.427 562.26L204.9 558.288C203.229 558.089 201.613 558.957 200.855 560.459C200.098 561.961 200.361 563.777 201.515 565.002L204.427 562.26ZM705.183 569.726L704.563 573.677C706.617 574 708.575 572.695 709.069 570.675C709.562 568.656 708.427 566.595 706.456 565.934L705.183 569.726ZM245.926 606.332L243.014 609.074C243.818 609.928 244.956 610.386 246.128 610.327L245.926 606.332ZM293.993 639.21L293.792 635.215C291.897 635.31 290.33 636.723 290.04 638.598C289.749 640.473 290.816 642.293 292.593 642.957L293.993 639.21ZM617.642 639.21L616.965 643.152C619.072 643.514 621.091 642.155 621.549 640.067C622.007 637.98 620.743 635.9 618.678 635.347L617.642 639.21ZM343.516 657.706L342.117 661.453C342.84 661.723 343.626 661.778 344.38 661.611L343.516 657.706ZM156.404 501.137C270.51 507.566 363.055 494.294 455.648 486.238C548.278 478.179 641.333 475.28 757.306 502.139L759.111 494.345C641.972 467.217 547.971 470.176 454.955 478.268C361.902 486.364 270.213 499.536 156.854 493.15L156.404 501.137ZM758.928 494.307C663.933 476.933 562.349 487.323 463.423 501.93C364.237 516.575 267.965 535.401 182.563 535.401V543.401C268.742 543.401 365.999 524.402 464.592 509.844C563.446 495.248 663.894 485.059 757.489 502.177L758.928 494.307ZM185.635 536.84C179.054 528.946 172.712 518.634 167.971 510.183C165.613 505.979 163.676 502.279 162.328 499.632C161.655 498.31 161.131 497.252 160.776 496.528C160.598 496.166 160.463 495.887 160.373 495.701C160.328 495.608 160.295 495.538 160.273 495.492C160.262 495.469 160.254 495.452 160.249 495.442C160.246 495.436 160.244 495.432 160.243 495.43C160.243 495.429 160.242 495.428 160.242 495.428C160.242 495.428 160.242 495.428 160.242 495.428C160.242 495.428 160.242 495.428 156.629 497.144C153.016 498.86 153.016 498.86 153.016 498.86C153.016 498.861 153.016 498.861 153.017 498.862C153.017 498.863 153.018 498.865 153.019 498.867C153.021 498.871 153.024 498.876 153.027 498.884C153.034 498.898 153.044 498.918 153.056 498.945C153.082 498.998 153.119 499.076 153.167 499.176C153.264 499.377 153.407 499.671 153.592 500.05C153.963 500.806 154.506 501.9 155.199 503.261C156.584 505.982 158.573 509.78 160.994 514.096C165.812 522.685 172.437 533.502 179.491 541.962L185.635 536.84ZM203.954 566.232C269.461 574.037 361.361 564.472 452.991 558.738C545.086 552.974 636.983 551.06 703.911 573.518L706.456 565.934C637.819 542.902 544.369 545.003 452.492 550.753C360.15 556.532 269.455 565.979 204.9 558.288L203.954 566.232ZM705.803 565.774C614.422 551.435 533.782 558.9 458.796 570.769C383.602 582.67 314.729 598.852 245.724 602.337L246.128 610.327C315.689 606.814 385.651 590.446 460.047 578.67C534.653 566.862 614.358 559.523 704.563 573.677L705.803 565.774ZM248.838 603.59L207.339 559.518L201.515 565.002L243.014 609.074L248.838 603.59ZM294.194 643.205C314.19 642.199 337.716 639.876 363.304 637.427C388.933 634.975 416.701 632.389 445.342 630.832C502.672 627.715 563.196 628.742 616.605 643.073L618.678 635.347C564.036 620.684 502.505 619.712 444.907 622.844C416.085 624.411 388.171 627.011 362.542 629.464C336.872 631.92 313.564 634.221 293.792 635.215L294.194 643.205ZM618.318 635.267C518.415 618.124 399.164 641.306 342.653 653.8L344.38 661.611C400.922 649.111 518.774 626.303 616.965 643.152L618.318 635.267ZM344.916 653.958L295.392 635.463L292.593 642.957L342.117 661.453L344.916 653.958Z" fill="#2B4469" mask="url(#path-2-outside-1_145_2)"/>
<path d="M152.207 356.003C152.228 175.963 298.265 30.0005 478.404 30.0005C608.323 30.0005 720.486 105.923 772.92 215.794C772.929 215.813 772.938 215.832 772.947 215.851L776.004 222.45L803.329 210.045C803.329 210.045 797.201 197.098 798.692 200.154C740.886 81.6456 619.187 0.000488281 478.408 0.000488281C281.713 0.000488281 122.23 159.382 122.207 356.003C122.204 378.432 124.277 400.377 128.243 421.656L157.67 415.776C154.08 396.399 152.204 376.42 152.207 356.003Z" fill="#2B4469"/>
<path d="M182.897 494.276C171.928 493.915 160.785 493.389 149.447 492.675C202.953 621.665 329.926 712.005 478.325 712.005C675.02 712.005 834.503 552.624 834.526 356.003C834.529 330.72 831.895 306.053 826.884 282.261C817.624 286.825 808.276 291.433 799.019 295.997C802.638 315.447 804.529 335.504 804.526 356.003C804.505 536.042 658.468 682.005 478.328 682.005C347.648 682.005 234.932 605.19 182.897 494.276Z" fill="#2B4469"/>
<path d="M905.786 177.824C907.223 167.355 904.746 165.712 905.973 164.995C906.764 164.557 908 164.309 908.725 164.399C910.9 164.67 916.398 172.654 918.362 178.39C922.557 190.645 921.255 200.313 913.9 205.626L679.03 321.93C609.175 357.232 613.631 354.773 617.718 355.281C623.781 356.036 651.064 365.928 663.449 371.823C685.236 382.303 692.82 391.283 686.125 398.821C679.176 406.795 655.287 413.733 628.9 415.47C606.286 417.008 600.576 416.632 530.347 408.694C495.101 404.708 474.408 403.728 465.09 403.304L48.4732 485.355C33.1748 488.542 32.7871 484.449 21.762 470.929C15.4014 463.129 12.9228 458.82 8.58679 452.489C5.9852 448.69 2.75653 439.215 6.55557 443C8.2508 444.214 13.577 447.892 21.4488 456.707C29.032 465.152 33.4498 469.452 38.5183 473.364L41.2709 475.448L46.3618 474.34L378.442 403.044C384.143 401.879 391.241 400.19 391.241 400.19C391.241 400.19 387.973 400.146 385.699 400.13C383.351 400.173 366.165 400.043 347.365 399.98C328.639 399.858 304.697 399.691 294.193 399.656C283.689 399.621 269.898 399.109 263.471 398.577L251.756 397.521L251.302 395.254C250.98 393.54 243.825 348.317 238.314 313.009L237.752 309.457L218.715 313.449L217.573 313.686C199.746 317.385 199.581 317.419 194.989 316.388C192.385 315.796 190.259 315.13 190.292 314.866C190.325 314.602 192.928 313.587 196.116 312.712C199.246 311.762 209.872 308.665 219.733 305.807C244.256 298.614 267.724 291.825 300.163 282.336L327.668 274.308L333.402 275.022C336.5 275.407 339.038 275.991 339.005 276.255C338.972 276.519 326.155 281.62 310.562 287.514C294.969 293.408 281.683 298.518 281.106 298.848C280.233 299.409 282.304 304.823 294.832 334.844C302.922 354.267 310.897 373.006 312.464 376.549C315.664 383.644 318.145 386.297 321.902 386.765C323.22 386.929 338.939 385.403 356.857 383.415C427.597 375.412 465.476 369.546 499.703 361.284C537.25 352.162 556.074 348.813 568.794 348.79L890.923 204.172C898.039 200.772 903.446 195.547 905.786 177.824Z" fill="#2B4469" stroke="#2B4469" stroke-width="4"/>
<path d="M627.384 217.71C621.032 223.117 612.796 226.381 603.798 226.381C583.695 226.381 567.399 210.093 567.399 190C567.399 169.908 583.695 153.62 603.798 153.62C614.902 153.62 624.845 158.59 631.522 166.426L650.389 147.568C638.862 134.931 622.256 127 603.798 127C568.986 127 540.766 155.207 540.766 190C540.766 224.794 568.986 253 603.798 253C620.151 253 635.05 246.776 646.252 236.568L627.384 217.71Z" fill="#2B4469"/>
<path d="M369.425 226.381C378.423 226.381 386.658 223.117 393.011 217.71C412.913 197.818 416.391 171.369 440.193 147.379C451.714 134.851 468.245 127 486.611 127C505.07 127 521.675 134.931 533.203 147.568L514.335 166.426C507.659 158.59 497.716 153.62 486.611 153.62C466.509 153.62 450.212 169.908 450.212 190C450.212 210.093 466.509 226.381 486.611 226.381C492.28 226.381 497.645 225.086 502.428 222.776V190H529.062L529.065 236.568C517.863 246.776 502.965 253 486.611 253C460.68 253 438.406 237.349 428.729 214.983C424.502 221.995 419.382 229.068 411.879 236.568C400.677 246.776 385.778 253 369.425 253C334.613 253 306.393 224.794 306.393 190C306.393 155.207 334.613 127 369.425 127C387.883 127 404.488 134.931 416.016 147.568L397.149 166.426C390.472 158.59 380.529 153.62 369.425 153.62C349.322 153.62 333.026 169.908 333.026 190C333.026 210.093 349.322 226.381 369.425 226.381Z" fill="#2B4469"/>
<path d="M627.384 217.71C621.032 223.117 612.796 226.381 603.798 226.381C583.695 226.381 567.399 210.093 567.399 190C567.399 169.908 583.695 153.62 603.798 153.62C614.902 153.62 624.845 158.59 631.522 166.426L650.389 147.568C638.862 134.931 622.256 127 603.798 127C568.986 127 540.766 155.207 540.766 190C540.766 224.794 568.986 253 603.798 253C620.151 253 635.05 246.776 646.252 236.568L627.384 217.71Z" stroke="#2B4469" stroke-width="4"/>
<path d="M369.425 226.381C378.423 226.381 386.658 223.117 393.011 217.71C412.913 197.818 416.391 171.369 440.193 147.379C451.714 134.851 468.245 127 486.611 127C505.07 127 521.675 134.931 533.203 147.568L514.335 166.426C507.659 158.59 497.716 153.62 486.611 153.62C466.509 153.62 450.212 169.908 450.212 190C450.212 210.093 466.509 226.381 486.611 226.381C492.28 226.381 497.645 225.086 502.428 222.776V190H529.062L529.065 236.568C517.863 246.776 502.965 253 486.611 253C460.68 253 438.406 237.349 428.729 214.983C424.502 221.995 419.382 229.068 411.879 236.568C400.677 246.776 385.778 253 369.425 253C334.613 253 306.393 224.794 306.393 190C306.393 155.207 334.613 127 369.425 127C387.883 127 404.488 134.931 416.016 147.568L397.149 166.426C390.472 158.59 380.529 153.62 369.425 153.62C349.322 153.62 333.026 169.908 333.026 190C333.026 210.093 349.322 226.381 369.425 226.381Z" stroke="#2B4469" stroke-width="4"/>
</svg>
