<svg width="1464" height="1136" viewBox="0 0 1464 1136" fill="none" xmlns="http://www.w3.org/2000/svg">
<path d="M316.528 928.245C304.795 928.245 294.235 925.792 284.848 920.885C275.568 915.872 268.262 908.939 262.928 900.085C257.595 891.232 254.928 881.205 254.928 870.005C254.928 858.805 257.595 848.779 262.928 839.925C268.262 831.072 275.568 824.192 284.848 819.285C294.235 814.272 304.795 811.765 316.528 811.765C326.768 811.765 335.995 813.579 344.208 817.205C352.422 820.832 359.248 826.059 364.688 832.885L344.528 851.125C337.275 842.379 328.475 838.005 318.128 838.005C312.048 838.005 306.608 839.339 301.808 842.005C297.115 844.672 293.435 848.459 290.768 853.365C288.208 858.165 286.928 863.712 286.928 870.005C286.928 876.299 288.208 881.899 290.768 886.805C293.435 891.605 297.115 895.339 301.808 898.005C306.608 900.672 312.048 902.005 318.128 902.005C328.475 902.005 337.275 897.632 344.528 888.885L364.688 907.125C359.248 913.952 352.422 919.179 344.208 922.805C335.995 926.432 326.768 928.245 316.528 928.245ZM451.978 904.245H404.618L395.818 926.005H363.498L412.938 814.005H444.138L493.738 926.005H460.778L451.978 904.245ZM442.698 880.885L428.298 845.045L413.898 880.885H442.698ZM609.28 814.005V926.005H583.2L533.76 866.325V926.005H502.72V814.005H528.8L578.24 873.685V814.005H609.28ZM717.706 867.605C724.106 869.845 729.119 873.365 732.746 878.165C736.372 882.859 738.186 888.565 738.186 895.285C738.186 905.099 734.239 912.672 726.346 918.005C718.452 923.339 707.039 926.005 692.106 926.005H631.626V814.005H688.906C703.199 814.005 714.079 816.672 721.546 822.005C729.012 827.232 732.746 834.325 732.746 843.285C732.746 848.619 731.412 853.419 728.746 857.685C726.186 861.845 722.506 865.152 717.706 867.605ZM662.986 836.885V858.485H684.746C695.412 858.485 700.746 854.859 700.746 847.605C700.746 840.459 695.412 836.885 684.746 836.885H662.986ZM689.546 903.125C700.639 903.125 706.186 899.339 706.186 891.765C706.186 884.192 700.639 880.405 689.546 880.405H662.986V903.125H689.546ZM844.515 901.525V926.005H754.595V814.005H842.435V838.485H785.955V857.365H835.715V881.045H785.955V901.525H844.515ZM911.055 896.245H893.775V926.005H862.095V814.005H913.295C923.428 814.005 932.228 815.712 939.695 819.125C947.161 822.432 952.921 827.232 956.975 833.525C961.028 839.712 963.055 847.019 963.055 855.445C963.055 863.552 961.135 870.645 957.295 876.725C953.561 882.699 948.175 887.392 941.135 890.805L965.295 926.005H931.375L911.055 896.245ZM931.055 855.445C931.055 850.219 929.401 846.165 926.095 843.285C922.788 840.405 917.881 838.965 911.375 838.965H893.775V871.765H911.375C917.881 871.765 922.788 870.379 926.095 867.605C929.401 864.725 931.055 860.672 931.055 855.445ZM1029.49 896.245H1012.21V926.005H980.532V814.005H1031.73C1041.87 814.005 1050.67 815.712 1058.13 819.125C1065.6 822.432 1071.36 827.232 1075.41 833.525C1079.47 839.712 1081.49 847.019 1081.49 855.445C1081.49 863.552 1079.57 870.645 1075.73 876.725C1072 882.699 1066.61 887.392 1059.57 890.805L1083.73 926.005H1049.81L1029.49 896.245ZM1049.49 855.445C1049.49 850.219 1047.84 846.165 1044.53 843.285C1041.23 840.405 1036.32 838.965 1029.81 838.965H1012.21V871.765H1029.81C1036.32 871.765 1041.23 870.379 1044.53 867.605C1047.84 864.725 1049.49 860.672 1049.49 855.445ZM1174.01 904.245H1126.65L1117.85 926.005H1085.53L1134.97 814.005H1166.17L1215.77 926.005H1182.81L1174.01 904.245ZM1164.73 880.885L1150.33 845.045L1135.93 880.885H1164.73ZM206.041 1027.61H234.041V1074.01C227.641 1078.59 220.281 1082.11 211.961 1084.57C203.641 1087.02 195.321 1088.25 187.001 1088.25C175.267 1088.25 164.707 1085.79 155.321 1080.89C145.934 1075.87 138.574 1068.94 133.241 1060.09C127.907 1051.23 125.241 1041.21 125.241 1030.01C125.241 1018.81 127.907 1008.78 133.241 999.925C138.574 991.072 145.987 984.192 155.481 979.285C164.974 974.272 175.694 971.765 187.641 971.765C198.094 971.765 207.481 973.525 215.801 977.045C224.121 980.565 231.054 985.632 236.601 992.245L216.441 1010.49C208.867 1002.17 199.801 998.005 189.241 998.005C179.641 998.005 171.907 1000.94 166.041 1006.81C160.174 1012.57 157.241 1020.3 157.241 1030.01C157.241 1036.19 158.574 1041.74 161.241 1046.65C163.907 1051.45 167.641 1055.23 172.441 1058.01C177.241 1060.67 182.734 1062.01 188.921 1062.01C195.001 1062.01 200.707 1060.78 206.041 1058.33V1027.61ZM254.126 974.005H285.806V1060.89H339.246V1086.01H254.126V974.005ZM351.782 974.005H383.462V1086.01H351.782V974.005ZM406.001 974.005H458.961C471.227 974.005 482.107 976.299 491.601 980.885C501.094 985.472 508.454 991.979 513.681 1000.41C518.907 1008.83 521.521 1018.7 521.521 1030.01C521.521 1041.31 518.907 1051.18 513.681 1059.61C508.454 1068.03 501.094 1074.54 491.601 1079.13C482.107 1083.71 471.227 1086.01 458.961 1086.01H406.001V974.005ZM457.681 1060.73C467.281 1060.73 474.961 1058.01 480.721 1052.57C486.587 1047.13 489.521 1039.61 489.521 1030.01C489.521 1020.41 486.587 1012.89 480.721 1007.45C474.961 1002.01 467.281 999.285 457.681 999.285H437.681V1060.73H457.681ZM538.188 974.005H569.868V1086.01H538.188V974.005ZM698.967 974.005V1086.01H672.887L623.447 1026.33V1086.01H592.407V974.005H618.487L667.927 1033.69V974.005H698.967ZM796.353 1027.61H824.353V1074.01C817.953 1078.59 810.593 1082.11 802.273 1084.57C793.953 1087.02 785.633 1088.25 777.313 1088.25C765.58 1088.25 755.02 1085.79 745.633 1080.89C736.247 1075.87 728.887 1068.94 723.553 1060.09C718.22 1051.23 715.553 1041.21 715.553 1030.01C715.553 1018.81 718.22 1008.78 723.553 999.925C728.887 991.072 736.3 984.192 745.793 979.285C755.287 974.272 766.007 971.765 777.953 971.765C788.407 971.765 797.793 973.525 806.113 977.045C814.433 980.565 821.367 985.632 826.913 992.245L806.753 1010.49C799.18 1002.17 790.113 998.005 779.553 998.005C769.953 998.005 762.22 1000.94 756.353 1006.81C750.487 1012.57 747.553 1020.3 747.553 1030.01C747.553 1036.19 748.887 1041.74 751.553 1046.65C754.22 1051.45 757.953 1055.23 762.753 1058.01C767.553 1060.67 773.047 1062.01 779.233 1062.01C785.313 1062.01 791.02 1060.78 796.353 1058.33V1027.61ZM946.841 1088.25C935.107 1088.25 924.547 1085.79 915.161 1080.89C905.881 1075.87 898.574 1068.94 893.241 1060.09C887.907 1051.23 885.241 1041.21 885.241 1030.01C885.241 1018.81 887.907 1008.78 893.241 999.925C898.574 991.072 905.881 984.192 915.161 979.285C924.547 974.272 935.107 971.765 946.841 971.765C957.081 971.765 966.307 973.579 974.521 977.205C982.734 980.832 989.561 986.059 995.001 992.885L974.841 1011.13C967.587 1002.38 958.787 998.005 948.441 998.005C942.361 998.005 936.921 999.339 932.121 1002.01C927.427 1004.67 923.747 1008.46 921.081 1013.37C918.521 1018.17 917.241 1023.71 917.241 1030.01C917.241 1036.3 918.521 1041.9 921.081 1046.81C923.747 1051.61 927.427 1055.34 932.121 1058.01C936.921 1060.67 942.361 1062.01 948.441 1062.01C958.787 1062.01 967.587 1057.63 974.841 1048.89L995.001 1067.13C989.561 1073.95 982.734 1079.18 974.521 1082.81C966.307 1086.43 957.081 1088.25 946.841 1088.25ZM1009.13 974.005H1040.81V1060.89H1094.25V1086.01H1009.13V974.005ZM1157.37 1088.25C1140.73 1088.25 1127.77 1083.71 1118.49 1074.65C1109.31 1065.58 1104.73 1052.73 1104.73 1036.09V974.005H1136.41V1035.13C1136.41 1053.05 1143.5 1062.01 1157.69 1062.01C1171.77 1062.01 1178.81 1053.05 1178.81 1035.13V974.005H1210.01V1036.09C1210.01 1052.73 1205.37 1065.58 1196.09 1074.65C1186.91 1083.71 1174.01 1088.25 1157.37 1088.25ZM1317.55 1027.61C1323.95 1029.85 1328.96 1033.37 1332.59 1038.17C1336.22 1042.86 1338.03 1048.57 1338.03 1055.29C1338.03 1065.1 1334.08 1072.67 1326.19 1078.01C1318.3 1083.34 1306.88 1086.01 1291.95 1086.01H1231.47V974.005H1288.75C1303.04 974.005 1313.92 976.672 1321.39 982.005C1328.86 987.232 1332.59 994.325 1332.59 1003.29C1332.59 1008.62 1331.26 1013.42 1328.59 1017.69C1326.03 1021.85 1322.35 1025.15 1317.55 1027.61ZM1262.83 996.885V1018.49H1284.59C1295.26 1018.49 1300.59 1014.86 1300.59 1007.61C1300.59 1000.46 1295.26 996.885 1284.59 996.885H1262.83ZM1289.39 1063.13C1300.48 1063.13 1306.03 1059.34 1306.03 1051.77C1306.03 1044.19 1300.48 1040.41 1289.39 1040.41H1262.83V1063.13H1289.39Z" fill="#2B4469"/>
<path d="M1031.06 524.014C797.95 470.027 648.558 532.047 420.449 517.675C420.449 517.675 433.78 543.818 447.415 560.173C618.997 560.173 842.471 489.522 1031.06 524.014Z" fill="#2B4469"/>
<path d="M978.035 595.497C842.471 550.008 602.866 604.995 472.804 589.499L517.325 630.489C655.891 623.491 796.449 567.004 978.035 595.497Z" fill="#2B4469"/>
<path d="M890.494 664.981C782.442 635.988 646.383 660.982 566.845 664.981L616.368 683.477C672.895 670.98 791.447 647.985 890.494 664.981Z" fill="#2B4469"/>
<path fill-rule="evenodd" clip-rule="evenodd" d="M453.901 519.275C442.932 518.915 431.789 518.389 420.451 517.675L420.27 517.285L420.228 517.293C473.734 646.283 600.93 737.005 749.329 737.005C946.024 737.005 1105.51 577.624 1105.53 381.002C1105.53 355.72 1102.9 331.053 1097.89 307.261C1088.63 311.825 1079.28 316.433 1070.02 320.996C1073.64 340.446 1075.53 360.504 1075.53 381.002C1075.51 561.042 929.472 707.005 749.332 707.005C618.652 707.005 505.936 630.19 453.901 519.275Z" fill="#2B4469"/>
<path d="M423.211 381.002C423.232 200.963 569.269 55 749.408 55C879.327 55 991.49 130.922 1043.92 240.794C1043.93 240.813 1043.94 240.832 1043.95 240.85L1047.01 247.45L1074.33 235.044C1074.33 235.044 1068.2 222.098 1069.7 225.154C1011.89 106.645 890.191 25 749.412 25C552.717 25 393.234 184.381 393.211 381.002C393.208 403.432 395.281 425.377 399.247 446.656L428.674 440.776C425.084 421.398 423.208 401.419 423.211 381.002Z" fill="#2B4469"/>
<path d="M1191.79 198.824C1193.23 188.355 1190.75 186.712 1191.98 185.994C1192.77 185.557 1194 185.309 1194.73 185.399C1196.9 185.67 1202.4 193.654 1204.37 199.389C1208.56 211.644 1207.26 221.313 1199.9 226.625L965.034 342.929C895.179 378.231 899.635 375.772 903.721 376.281C909.785 377.036 937.068 386.928 949.453 392.822C971.24 403.302 978.824 412.283 972.129 419.82C965.18 427.795 941.291 434.732 914.904 436.47C892.289 438.008 886.58 437.632 816.351 429.693C781.104 425.708 760.412 424.727 751.094 424.304L334.477 506.355C319.179 509.542 318.791 505.449 307.766 491.929C301.405 484.129 298.927 479.819 294.591 473.488C291.989 469.69 288.76 460.214 292.559 464C294.255 465.214 299.581 468.892 307.453 477.707C315.036 486.151 319.454 490.451 324.522 494.364L327.275 496.447L332.366 495.34L664.446 424.044C670.147 422.879 677.244 421.19 677.244 421.19C677.244 421.19 673.977 421.145 671.703 421.13C669.355 421.173 652.169 421.043 633.369 420.979C614.643 420.858 590.701 420.69 580.197 420.655C569.693 420.62 555.902 420.109 549.475 419.577L537.76 418.52L537.306 416.254C536.984 414.539 529.829 369.316 524.318 334.008L523.756 330.456L504.718 334.448L503.577 334.685C485.75 338.384 485.585 338.419 480.993 337.388C478.389 336.796 476.263 336.129 476.296 335.866C476.329 335.602 478.932 334.587 482.12 333.711C485.25 332.761 495.876 329.664 505.737 326.807C530.259 319.613 553.728 312.824 586.167 303.335L613.672 295.307L619.406 296.021C622.504 296.407 625.042 296.991 625.009 297.254C624.976 297.518 612.159 302.619 596.566 308.514C580.973 314.408 567.687 319.518 567.11 319.848C566.237 320.409 568.308 325.823 580.835 355.843C588.926 375.266 596.901 394.005 598.468 397.549C601.668 404.644 604.149 407.296 607.906 407.764C609.224 407.928 624.943 406.403 642.861 404.414C713.601 396.411 751.479 390.545 785.707 382.283C823.254 373.162 842.077 369.813 854.798 369.789L1176.93 225.171C1184.04 221.771 1189.45 216.546 1191.79 198.824Z" fill="#2B4469"/>
<path d="M898.388 242.71C892.035 248.117 883.8 251.38 874.802 251.38C854.699 251.38 838.403 235.092 838.403 215C838.403 194.908 854.699 178.62 874.802 178.62C885.906 178.62 895.849 183.59 902.526 191.426L921.393 172.568C909.865 159.93 893.26 152 874.802 152C839.99 152 811.77 180.206 811.77 215C811.77 249.794 839.99 278 874.802 278C891.155 278 906.054 271.776 917.256 261.568L898.388 242.71Z" fill="#2B4469"/>
<path d="M640.429 251.38C649.427 251.38 657.662 248.117 664.015 242.71C683.917 222.818 687.395 196.368 711.197 172.378C722.718 159.851 739.249 152 757.615 152C776.074 152 792.679 159.93 804.207 172.568L785.339 191.426C778.663 183.59 768.72 178.62 757.615 178.62C737.513 178.62 721.216 194.908 721.216 215C721.216 235.092 737.513 251.38 757.615 251.38C763.284 251.38 768.649 250.085 773.432 247.775V215H800.066V261.564L800.069 261.568C788.867 271.776 773.969 278 757.615 278C731.684 278 709.41 262.349 699.733 239.982C695.506 246.995 690.386 254.068 682.883 261.568C671.681 271.776 656.782 278 640.429 278C605.617 278 577.396 249.794 577.396 215C577.396 180.206 605.617 152 640.429 152C658.887 152 675.492 159.93 687.02 172.568L668.152 191.426C661.476 183.59 651.533 178.62 640.429 178.62C620.326 178.62 604.03 194.908 604.03 215C604.03 235.092 620.326 251.38 640.429 251.38Z" fill="#2B4469"/>
</svg>
