<?xml version="1.0" standalone="no"?>
<!DOCTYPE svg PUBLIC "-//W3C//DTD SVG 20010904//EN"
 "http://www.w3.org/TR/2001/REC-SVG-20010904/DTD/svg10.dtd">
<svg version="1.0" xmlns="http://www.w3.org/2000/svg"
 width="969.000000pt" height="969.000000pt" viewBox="0 0 969.000000 969.000000"
 preserveAspectRatio="xMidYMid meet">
<metadata>
Created by potrace 1.14, written by Peter Selinger 2001-2017
</metadata>
<g transform="translate(0.000000,969.000000) scale(0.100000,-0.100000)"
fill="#000000" stroke="none">
<path d="M4716 8413 c-4 -4 -28 -8 -54 -9 -45 -2 -116 -8 -227 -19 -275 -28
-659 -128 -925 -239 -47 -20 -93 -40 -102 -46 -10 -5 -25 -10 -33 -10 -8 0
-15 -4 -15 -10 0 -5 -5 -10 -12 -10 -16 0 -190 -89 -272 -139 -36 -23 -71 -41
-76 -41 -6 0 -10 -4 -10 -10 0 -5 -5 -10 -10 -10 -21 0 -267 -174 -375 -265
-33 -27 -66 -54 -73 -60 -43 -33 -256 -243 -316 -311 -105 -119 -160 -184
-170 -202 -5 -10 -16 -23 -23 -31 -18 -18 -168 -234 -167 -241 0 -3 -5 -11
-12 -17 -27 -28 -207 -362 -204 -379 1 -4 -2 -10 -7 -13 -7 -5 -25 -45 -89
-196 -7 -16 -22 -57 -33 -90 -12 -33 -24 -67 -28 -75 -3 -8 -7 -19 -8 -25 -2
-5 -15 -50 -29 -100 -34 -112 -32 -106 -65 -253 -12 -51 -24 -110 -27 -130 -3
-20 -7 -44 -9 -52 -3 -8 -7 -37 -11 -65 -3 -27 -8 -63 -10 -80 -39 -290 -31
-751 17 -992 6 -28 11 -61 12 -73 1 -19 6 -21 42 -17 22 3 51 8 65 11 23 5 58
12 115 22 78 14 77 13 71 57 -3 23 -8 53 -11 67 -5 23 -8 49 -20 160 -16 137
-21 442 -9 462 5 7 2 8 -6 3 -9 -6 -11 -4 -6 4 5 7 10 36 11 65 5 80 24 267
31 301 8 37 17 100 18 118 0 9 3 17 6 17 3 0 6 8 7 18 4 47 48 215 89 342 15
47 28 87 28 90 1 3 8 24 18 45 9 22 26 67 39 100 13 33 25 62 28 65 3 3 7 11
9 18 2 12 89 191 120 248 52 95 208 335 256 395 12 14 32 40 46 59 26 34 29
38 113 135 59 67 197 206 278 278 30 27 66 59 80 73 14 13 29 24 33 24 4 0 17
11 30 25 13 14 28 25 34 25 6 0 12 3 14 8 5 11 104 83 206 148 52 32 109 69
128 82 19 12 41 22 49 22 7 0 15 4 17 8 5 13 215 117 333 165 145 59 357 130
420 142 11 2 20 4 20 5 0 1 7 3 15 5 20 4 132 28 145 31 6 1 27 5 49 9 21 4
48 9 60 11 11 2 41 7 66 10 25 3 56 7 70 10 110 19 519 25 685 10 128 -11 160
-14 160 -16 0 -2 16 -4 95 -15 30 -5 61 -8 68 -8 6 0 12 -3 12 -7 0 -3 15 -7
33 -8 17 -1 46 -6 62 -11 37 -12 104 -23 108 -19 2 2 11 -3 20 -11 10 -7 17
-10 17 -7 0 4 8 2 18 -3 11 -6 30 -12 43 -14 93 -18 387 -135 564 -225 188
-96 468 -277 551 -357 6 -5 25 -21 43 -35 138 -108 349 -324 492 -505 137
-173 288 -419 375 -607 15 -32 30 -58 35 -58 4 0 43 16 86 36 43 20 102 47
131 60 45 20 51 26 43 41 -5 10 -37 74 -71 143 -34 69 -69 133 -78 143 -8 9
-12 17 -7 17 4 0 -4 15 -19 34 -14 19 -26 37 -26 40 0 25 -249 366 -355 486
-98 111 -359 362 -431 415 -15 11 -33 26 -40 33 -19 18 -90 71 -164 122 -36
25 -71 51 -78 58 -7 6 -17 12 -22 12 -5 0 -15 6 -22 13 -8 6 -25 18 -38 26
-14 8 -63 37 -110 64 -166 97 -484 246 -532 250 -10 1 -18 4 -18 7 0 4 -64 27
-100 36 -3 0 -12 4 -20 7 -94 39 -491 131 -614 143 -23 2 -57 6 -76 9 -65 9
-155 17 -240 19 -47 1 -91 5 -97 9 -6 4 -14 3 -17 -2 -3 -5 -21 -5 -41 -1 -20
4 -38 4 -41 -1 -3 -5 -13 -5 -23 1 -10 5 -21 6 -25 3 -9 -10 -60 -10 -67 0 -3
4 -9 4 -13 0z"/>
<path d="M3625 7124 c-179 -42 -338 -170 -420 -337 -47 -99 -65 -182 -61 -297
4 -105 5 -109 35 -194 61 -175 218 -328 387 -380 33 -10 72 -22 87 -26 46 -14
236 -5 292 14 72 25 134 54 180 86 51 35 125 107 125 121 0 5 4 8 9 4 5 -3 12
4 16 15 3 11 9 20 13 20 4 0 21 23 37 50 17 27 33 50 36 50 3 0 20 -27 39 -60
19 -33 37 -60 42 -60 4 0 8 -5 8 -10 0 -12 97 -104 143 -135 136 -93 345 -128
501 -85 110 31 235 98 267 143 12 16 5 455 -7 467 -7 7 -14 8 -17 3 -3 -5 -28
-7 -55 -3 -27 3 -61 3 -75 -1 -15 -4 -29 -3 -33 2 -3 5 -11 6 -17 2 -7 -4 -22
-6 -34 -4 l-23 2 0 -164 0 -165 -32 -12 c-66 -25 -158 -28 -228 -7 -140 41
-244 164 -256 302 -3 28 -7 58 -9 68 -2 9 0 17 4 17 4 0 8 15 9 32 7 85 102
211 189 250 24 10 44 18 45 17 2 -1 13 3 26 10 29 15 148 16 188 1 16 -7 37
-13 47 -15 21 -5 71 -38 110 -74 l28 -26 94 95 95 95 -48 43 c-71 65 -185 126
-281 148 -14 4 -71 8 -126 10 -216 6 -372 -72 -541 -271 -51 -61 -134 -187
-134 -204 0 -5 -3 -11 -7 -13 -5 -1 -30 -46 -57 -98 -60 -116 -141 -243 -187
-291 -31 -34 -119 -96 -119 -85 0 3 -16 -2 -35 -10 -20 -8 -40 -12 -45 -9 -6
4 -10 3 -10 -2 0 -4 -19 -7 -42 -6 -24 0 -43 2 -43 3 0 0 -17 3 -38 5 -50 5
-148 59 -189 104 -35 37 -84 127 -94 171 -12 56 -5 147 16 203 41 110 125 189
238 224 76 23 195 18 230 -9 6 -6 12 -8 12 -4 0 9 81 -42 112 -72 l28 -25 90
91 c49 50 90 94 90 98 0 17 -137 124 -159 124 -6 0 -11 5 -11 10 0 6 -8 10
-18 10 -10 0 -22 4 -27 9 -6 5 -43 19 -84 29 -87 24 -218 26 -306 6z"/>
<path d="M6010 7129 c0 -6 -4 -7 -10 -4 -15 9 -88 -14 -170 -54 -54 -26 -95
-56 -150 -112 -41 -41 -81 -83 -88 -92 -29 -38 -82 -166 -95 -228 -12 -58 -14
-203 -4 -249 37 -163 129 -303 257 -393 201 -141 471 -154 678 -32 64 37 102
68 102 81 0 5 -41 49 -90 98 l-90 89 -37 -25 c-41 -27 -84 -45 -123 -52 -14
-3 -25 -5 -25 -6 0 -8 -105 0 -155 12 -88 22 -178 99 -223 195 -28 60 -32 78
-32 153 0 115 26 178 105 257 133 133 357 140 490 16 19 -18 37 -33 40 -33 3
0 47 42 99 94 l93 93 -53 46 c-73 64 -177 117 -280 144 -42 11 -239 12 -239 2z"/>
<path d="M9294 6802 c-5 -4 -9 -34 -9 -67 1 -69 -18 -167 -41 -207 -8 -16 -13
-28 -9 -28 3 0 -9 -16 -26 -35 -31 -33 -155 -101 -239 -130 -3 -1 -32 -14 -65
-29 -33 -15 -73 -34 -90 -41 -16 -7 -68 -31 -115 -53 -47 -21 -102 -45 -122
-53 -21 -7 -38 -17 -38 -21 0 -4 -3 -7 -7 -6 -5 1 -25 -6 -45 -15 -21 -9 -55
-25 -75 -34 -21 -9 -40 -17 -43 -18 -3 -1 -30 -13 -60 -27 -30 -15 -62 -28
-70 -30 -8 -2 -18 -7 -21 -11 -3 -5 -12 -9 -20 -11 -8 -1 -41 -15 -74 -30 -33
-16 -100 -46 -150 -68 -49 -22 -118 -53 -153 -69 -35 -16 -68 -29 -73 -29 -5
0 -9 -5 -9 -10 0 -6 -3 -9 -7 -8 -7 3 -124 -47 -299 -128 -40 -18 -105 -47
-145 -64 -41 -18 -107 -48 -147 -66 -41 -19 -75 -34 -77 -34 -2 0 -43 -18 -92
-41 -48 -22 -104 -47 -123 -56 -19 -9 -53 -24 -74 -34 -22 -11 -46 -19 -53
-19 -7 0 -13 -4 -13 -10 0 -5 -5 -10 -10 -10 -6 0 -27 -7 -48 -17 -20 -9 -39
-17 -42 -18 -3 -1 -36 -16 -73 -33 -38 -18 -70 -32 -72 -32 -1 0 -46 -20 -98
-45 -53 -25 -98 -45 -101 -45 -2 0 -37 -15 -78 -34 -40 -18 -95 -43 -123 -55
-27 -12 -68 -31 -90 -41 -49 -24 -71 -28 -158 -34 -37 -3 -71 -7 -75 -10 -5
-3 -27 -6 -50 -7 -23 -2 -42 -7 -42 -12 0 -4 -4 -6 -9 -3 -8 5 -98 -11 -216
-39 -219 -52 -364 -85 -390 -89 -16 -3 -41 -8 -55 -11 -53 -12 -145 -28 -220
-39 -14 -2 -25 -5 -25 -6 0 -2 -21 -5 -95 -14 -25 -3 -56 -8 -70 -11 -14 -3
-43 -7 -65 -10 -22 -2 -56 -7 -75 -10 -19 -3 -53 -7 -75 -10 -22 -3 -74 -10
-115 -15 -109 -16 -185 -25 -270 -35 -25 -2 -67 -7 -95 -11 -27 -3 -70 -7 -95
-9 -25 -2 -45 -4 -45 -5 0 -1 -18 -4 -40 -6 -22 -1 -67 -6 -100 -9 -168 -17
-183 -14 -218 42 -26 43 -129 283 -127 297 1 5 -3 12 -10 16 -6 4 -13 13 -14
21 -2 8 -7 23 -11 34 -5 11 -39 94 -77 183 -37 90 -68 170 -68 178 0 8 -4 14
-8 14 -5 0 -9 6 -10 13 0 6 -4 27 -7 45 -4 20 -2 32 5 32 12 0 187 66 212 80
10 6 23 10 28 10 6 0 30 8 53 18 23 10 83 34 132 52 50 19 101 40 114 47 l24
12 -24 6 c-59 14 -96 11 -180 -15 -49 -15 -89 -26 -89 -23 0 3 -7 0 -15 -7 -8
-7 -15 -9 -15 -5 0 4 -6 2 -14 -4 -8 -6 -18 -11 -22 -9 -5 1 -40 -8 -79 -19
-67 -21 -179 -54 -200 -59 -5 -2 -41 -12 -80 -24 -38 -12 -77 -23 -85 -25 -8
-2 -27 -8 -42 -14 -16 -6 -28 -9 -28 -7 0 3 -24 -4 -52 -15 -29 -11 -69 -22
-88 -25 -19 -3 -50 -12 -70 -19 -32 -13 -282 -85 -305 -89 -5 -1 -16 -5 -22
-9 -7 -5 -23 -10 -34 -12 -26 -5 -35 -13 -26 -22 11 -10 103 -12 146 -2 21 5
53 10 72 13 19 2 74 14 122 25 119 28 127 28 128 -9 1 -16 2 -33 3 -37 5 -20
27 -159 31 -198 2 -16 7 -46 10 -65 4 -19 8 -48 11 -65 9 -65 13 -90 15 -90 1
0 3 -9 4 -20 7 -53 18 -122 21 -140 2 -11 7 -41 10 -66 3 -25 11 -72 17 -105
l12 -59 65 -7 c36 -5 205 -10 375 -12 171 -3 330 -5 355 -5 25 -1 78 -1 119
-2 41 0 78 -2 82 -5 4 -2 10 0 14 5 3 6 12 8 20 5 22 -9 185 -10 185 -1 0 5 6
5 13 0 6 -4 38 -6 71 -4 41 2 56 -1 51 -9 -4 -6 -14 -10 -23 -9 -10 1 -20 0
-24 -1 -5 -1 -12 -4 -18 -5 -5 -1 -11 -3 -12 -5 -2 -1 -16 -4 -33 -6 -16 -3
-113 -23 -215 -45 -232 -51 -220 -48 -254 -55 -16 -2 -32 -7 -35 -9 -4 -2 -26
-6 -50 -10 -24 -3 -53 -10 -65 -14 -11 -5 -24 -9 -29 -9 -4 0 -20 -3 -35 -6
-15 -3 -40 -8 -57 -11 -30 -5 -56 -10 -98 -21 -12 -3 -31 -7 -42 -9 -44 -8
-81 -16 -97 -21 -10 -3 -30 -7 -45 -10 -16 -2 -39 -7 -53 -10 -14 -3 -36 -8
-50 -10 -14 -3 -41 -9 -60 -14 -19 -5 -46 -11 -60 -14 -14 -2 -69 -14 -122
-26 -53 -11 -109 -23 -125 -25 -15 -3 -64 -13 -108 -24 -44 -11 -82 -19 -85
-19 -9 2 -85 -14 -94 -20 -6 -3 -19 -6 -30 -7 -12 -1 -106 -21 -210 -44 -104
-22 -198 -43 -210 -46 -11 -2 -32 -7 -46 -10 -14 -3 -38 -8 -53 -10 -15 -3
-55 -12 -88 -19 -33 -8 -62 -15 -64 -15 -3 -1 -6 -1 -7 -2 -2 0 -10 -2 -18 -4
-30 -5 -275 -57 -290 -60 -8 -2 -58 -13 -110 -25 -113 -26 -118 -27 -161 -34
-19 -3 -49 -10 -66 -15 -18 -5 -33 -7 -33 -4 0 3 -6 0 -13 -6 -8 -6 -16 -9
-18 -6 -3 2 -22 0 -44 -6 -87 -20 -106 -21 -133 -3 -25 17 -135 125 -198 194
-17 19 -48 49 -68 65 -21 17 -44 36 -51 43 -21 19 -26 -2 -11 -39 35 -81 229
-341 281 -375 29 -19 68 -23 114 -13 20 4 53 10 73 13 21 3 57 10 80 15 24 6
57 12 73 15 17 3 41 8 55 11 14 3 50 10 80 16 30 6 74 15 97 20 22 5 58 11 80
14 21 3 45 8 53 11 8 3 32 8 53 11 45 6 72 11 72 13 0 1 9 3 20 5 11 2 36 7
55 11 19 4 43 8 53 9 9 2 18 3 20 5 3 2 26 7 77 15 24 4 47 8 51 10 3 2 32 9
65 14 32 6 70 13 84 16 43 9 244 48 265 51 11 1 20 3 20 4 0 2 33 9 70 14 17
3 30 5 30 6 0 1 14 4 30 6 45 8 70 12 70 14 0 2 27 7 72 13 21 3 45 8 53 11 8
3 29 7 45 10 17 2 62 11 100 19 39 9 86 18 105 22 19 3 44 7 55 9 11 2 40 8
65 14 25 6 61 13 80 16 38 6 71 13 110 22 14 3 39 7 55 10 36 6 62 11 95 18
50 11 136 28 160 31 22 3 76 14 135 28 11 3 70 14 130 26 118 22 133 25 210
41 28 5 61 12 75 14 14 3 36 8 50 11 25 5 46 9 109 20 19 3 37 7 40 9 3 2 28
7 55 10 27 4 52 9 56 11 3 2 25 6 50 10 25 4 47 8 50 10 3 2 22 6 42 9 21 3
57 10 80 15 24 6 58 13 77 16 19 3 103 20 185 36 83 17 160 31 171 33 12 1 25
5 30 7 9 5 150 4 150 -1 0 -1 29 -3 65 -5 71 -3 198 -13 258 -20 20 -2 68 -7
106 -10 38 -3 72 -7 75 -9 3 -2 49 -7 101 -11 52 -4 97 -8 100 -10 3 -1 41 -6
84 -10 43 -4 86 -8 95 -10 9 -1 45 -6 81 -9 36 -4 81 -9 100 -11 58 -7 222
-17 270 -17 49 0 249 11 290 17 116 15 220 37 280 60 19 7 37 13 40 13 20 -1
111 51 138 79 40 41 41 72 5 123 -38 52 -119 103 -293 183 -58 27 -272 105
-338 123 -34 10 -62 21 -62 25 0 4 17 13 38 20 20 6 39 15 42 19 4 6 78 44
285 149 28 13 53 24 58 23 4 -1 7 3 7 9 0 5 4 8 9 5 5 -4 11 -3 13 1 4 10 141
79 147 74 2 -1 7 1 10 6 5 7 389 202 411 208 19 6 112 54 126 66 9 8 18 12 18
10 1 -2 222 106 491 240 270 133 492 243 495 244 3 0 143 70 312 154 169 84
310 152 314 151 4 -1 10 2 13 7 3 5 24 17 46 27 122 53 173 89 192 134 18 44
18 150 -1 180 -4 6 -5 12 -1 12 7 0 -31 76 -57 113 -23 32 -50 48 -64 39z"/>
<path d="M8290 5560 c-19 -10 -42 -22 -50 -26 -8 -4 -50 -23 -93 -43 l-77 -36
5 -50 c3 -27 7 -61 10 -75 5 -26 11 -79 23 -190 15 -145 7 -588 -13 -689 -2
-13 -7 -47 -10 -75 -2 -28 -7 -62 -10 -76 -3 -14 -8 -41 -11 -60 -3 -19 -8
-44 -12 -55 -3 -11 -7 -28 -8 -37 -1 -10 -2 -19 -3 -20 -2 -3 -5 -15 -15 -63
-1 -5 -5 -16 -9 -22 -5 -7 -6 -13 -4 -13 3 0 -8 -44 -24 -97 -17 -54 -31 -105
-33 -113 -7 -25 -43 -122 -69 -180 -9 -19 -13 -38 -11 -42 3 -4 0 -8 -5 -8 -6
0 -11 -6 -11 -12 0 -16 -115 -252 -165 -338 -21 -36 -43 -74 -49 -85 -16 -28
-108 -167 -121 -182 -31 -37 -35 -43 -35 -48 0 -8 -152 -197 -205 -254 -67
-73 -209 -213 -261 -258 -27 -24 -56 -49 -64 -56 -12 -11 -167 -131 -225 -175
-35 -26 -185 -122 -191 -122 -4 0 -15 -6 -23 -14 -17 -15 -300 -162 -366 -189
-75 -31 -100 -40 -107 -39 -5 1 -8 -2 -8 -6 0 -5 -6 -9 -12 -10 -7 0 -65 -19
-128 -41 -97 -33 -183 -58 -305 -88 -58 -14 -101 -21 -107 -17 -5 3 -8 1 -8
-3 0 -5 -8 -9 -17 -10 -23 -1 -101 -12 -133 -18 -24 -5 -42 -7 -195 -22 -140
-14 -579 -7 -675 11 -14 3 -45 7 -70 10 -25 3 -54 8 -65 10 -106 19 -113 21
-164 31 -73 14 -239 61 -335 95 -214 74 -221 77 -198 85 23 7 65 16 97 20 11
2 20 4 20 5 0 1 9 3 20 5 11 2 36 7 55 10 19 4 46 9 60 12 14 2 57 10 95 18
39 7 90 17 115 21 25 4 47 8 50 9 5 1 77 12 139 22 18 2 43 6 55 9 11 2 42 6
67 9 25 3 56 8 70 10 13 3 49 7 79 10 30 3 69 7 85 9 68 11 124 17 195 22 41
3 86 7 100 9 152 27 879 27 1075 0 17 -2 54 -6 84 -10 30 -3 66 -8 80 -12 14
-3 22 -2 18 3 -4 4 -13 9 -20 10 -31 5 -63 13 -77 18 -8 2 -35 8 -60 11 -57 8
-77 12 -115 19 -66 13 -69 13 -217 31 -190 23 -325 29 -663 29 -279 0 -414 -4
-644 -19 -105 -7 -226 -16 -261 -20 -19 -3 -69 -7 -110 -9 -41 -3 -96 -8 -122
-11 -49 -6 -117 -12 -208 -20 -30 -2 -79 -7 -107 -10 -127 -13 -161 -16 -218
-20 -33 -3 -75 -7 -93 -10 -27 -3 -49 6 -115 46 -45 27 -91 55 -102 62 -11 7
-22 14 -25 18 -3 3 -34 25 -70 50 -36 24 -70 49 -76 54 -6 6 -28 24 -50 42
-80 64 -89 72 -79 73 6 1 28 3 50 4 58 5 173 17 193 21 16 3 120 15 172 20 14
1 39 5 55 8 17 4 50 9 75 12 25 3 56 8 70 10 29 5 68 11 125 20 23 3 52 7 65
10 13 3 40 7 60 10 20 3 47 8 60 10 14 3 41 8 60 10 19 2 46 7 60 10 14 3 43
8 65 11 22 3 51 7 65 10 86 15 192 34 212 38 13 3 41 8 62 11 21 3 48 7 60 10
12 2 37 7 56 9 19 3 73 12 120 20 80 14 104 18 198 32 20 3 48 7 62 10 14 3
43 7 65 10 22 2 54 6 70 9 75 11 122 17 150 20 17 2 30 4 30 5 0 1 20 3 45 5
56 4 96 12 110 20 5 3 10 1 10 -5 0 -6 4 -9 8 -6 5 3 31 8 58 11 27 3 63 8 79
10 17 2 71 7 120 10 50 4 106 9 125 11 79 7 416 18 580 17 214 0 539 -18 685
-37 17 -2 57 -7 90 -11 104 -13 176 -25 190 -32 7 -4 7 -3 0 4 -24 23 -300 93
-430 109 -27 4 -53 8 -57 10 -3 2 -28 7 -55 9 -26 3 -66 8 -88 11 -22 3 -58 7
-80 9 -22 2 -67 6 -100 10 -101 10 -213 16 -370 20 -82 1 -152 4 -155 5 -3 1
-9 1 -15 0 -32 -7 -56 -6 -61 2 -3 5 -11 4 -19 -2 -9 -8 -15 -8 -20 0 -4 7
-12 7 -25 0 -13 -7 -21 -7 -25 0 -4 6 -13 7 -23 1 -11 -6 -24 -6 -35 0 -9 6
-17 6 -17 2 0 -4 -60 -9 -133 -9 -120 -2 -432 -11 -432 -14 0 -1 -59 -4 -260
-15 -55 -3 -122 -7 -150 -10 -27 -2 -93 -6 -145 -9 -52 -4 -122 -9 -155 -11
-61 -5 -125 -10 -270 -20 -44 -3 -105 -8 -135 -10 -150 -12 -297 -22 -440 -30
-52 -3 -122 -7 -155 -9 -157 -11 -442 -18 -654 -18 l-234 1 -43 48 c-24 26
-43 54 -44 61 0 6 -4 12 -8 12 -8 0 -103 124 -111 145 -2 6 -10 18 -19 28 -20
23 -9 32 41 34 53 2 183 11 267 17 36 3 94 8 130 11 36 2 85 7 110 10 25 3 70
7 100 10 30 3 71 7 90 10 19 3 60 7 90 10 30 4 66 8 80 10 52 8 137 18 175 20
22 2 51 5 65 9 14 3 41 8 60 10 19 2 35 5 35 6 0 0 20 3 45 5 68 6 188 22 226
29 19 4 58 9 159 22 34 4 167 23 206 30 14 2 41 6 60 8 19 3 49 7 68 11 19 3
55 8 80 10 25 2 46 5 46 5 0 3 40 9 90 15 28 3 63 7 78 10 16 3 48 8 70 11 76
9 101 12 157 20 30 4 67 8 83 8 15 1 27 4 27 7 0 4 8 6 18 6 9 -1 49 3 87 7
39 5 79 10 90 11 11 1 43 5 70 8 28 4 73 9 100 12 28 3 68 8 90 10 49 6 121
13 200 20 71 7 139 13 209 20 28 3 87 8 131 10 44 3 100 7 125 9 252 23 971
23 1184 0 22 -2 68 -6 101 -9 76 -7 163 -16 195 -20 14 -2 48 -6 75 -9 45 -5
46 -5 15 4 -55 15 -242 52 -272 53 -16 1 -28 4 -28 7 0 3 -12 6 -27 7 -16 0
-41 4 -57 7 -15 4 -49 9 -75 11 -25 2 -46 5 -46 6 0 1 -9 3 -20 4 -82 11 -113
15 -133 19 -13 3 -43 6 -68 7 -24 2 -44 5 -44 8 0 3 -19 6 -43 7 -23 0 -73 4
-112 7 -199 19 -285 25 -500 33 -306 12 -752 8 -1050 -10 -240 -15 -295 -18
-340 -22 -27 -2 -77 -5 -110 -8 -33 -2 -95 -7 -137 -11 -43 -3 -102 -8 -130
-10 -29 -2 -82 -6 -118 -9 -114 -10 -276 -23 -380 -31 -41 -3 -95 -7 -120 -10
-25 -2 -85 -7 -135 -10 -49 -3 -112 -7 -140 -10 -82 -6 -247 -18 -295 -20 -25
-1 -124 -6 -220 -11 -231 -11 -889 -11 -1110 0 -207 10 -183 9 -192 7 -7 -1 6
-35 56 -143 15 -32 27 -61 27 -65 0 -5 6 -15 13 -23 7 -8 27 -44 46 -80 36
-70 150 -262 160 -270 3 -3 17 -22 29 -43 102 -168 390 -500 561 -647 14 -12
39 -34 55 -48 17 -15 53 -45 80 -67 28 -22 52 -42 55 -46 3 -3 26 -20 53 -39
26 -18 47 -37 47 -42 0 -4 6 -8 13 -8 7 0 23 -9 35 -20 12 -11 24 -20 28 -20
3 0 23 -14 44 -30 21 -16 42 -30 47 -30 6 0 18 -9 28 -20 10 -11 20 -18 23
-15 2 2 19 -7 37 -20 17 -14 34 -25 38 -25 3 0 44 -23 92 -50 48 -28 93 -50
100 -50 7 0 15 -4 17 -8 4 -10 86 -48 230 -108 62 -25 122 -50 133 -55 23 -9
172 -59 195 -65 8 -2 40 -10 70 -19 80 -24 162 -44 290 -70 43 -9 153 -27 195
-31 22 -3 51 -7 65 -10 39 -7 177 -16 262 -18 43 0 78 -5 78 -10 0 -5 6 -4 13
2 6 5 21 6 32 2 11 -4 29 -4 41 0 11 5 27 4 34 0 8 -5 17 -7 21 -4 4 2 58 7
121 10 62 3 127 7 143 8 77 9 171 19 183 19 6 0 12 4 12 8 0 5 6 6 14 3 19 -7
298 51 421 87 55 16 107 31 116 33 38 10 210 71 264 96 33 14 62 27 65 27 3 1
40 17 84 37 43 20 82 36 87 36 5 0 9 4 9 10 0 5 3 9 8 8 7 -2 114 52 157 79
11 7 27 16 35 20 13 6 68 40 120 73 48 31 216 144 220 149 3 3 23 19 45 36 22
16 42 31 45 34 3 4 28 24 55 46 88 70 118 97 255 235 115 115 191 197 247 270
6 8 28 35 47 60 20 25 40 50 44 55 4 6 23 33 42 60 18 28 36 52 39 55 8 7 101
149 101 154 0 2 18 34 41 72 36 59 162 300 164 314 1 3 10 26 22 52 12 25 24
57 28 70 4 12 11 28 15 33 4 6 19 46 34 90 15 44 29 87 33 95 3 8 8 24 10 35
2 11 8 22 13 23 6 2 8 7 5 12 -3 5 0 21 6 37 6 15 12 35 14 43 2 8 8 35 15 60
7 25 14 52 15 60 2 8 13 53 24 100 19 82 29 132 37 195 2 17 7 46 10 65 3 19
7 50 7 68 1 17 4 32 7 32 3 0 5 17 6 38 1 20 4 82 7 137 13 209 7 441 -18 655
-3 25 -7 61 -9 80 -2 19 -5 35 -6 35 -1 0 -3 15 -6 34 -4 33 -11 69 -19 101
-2 8 -4 23 -4 33 -1 22 -17 21 -61 -3z"/>
</g>
</svg>
